#define _width 20
#define _height 14
static char _bits[] = {
 0x00,0x00,0x00,0x00,0x0f,0x00,0x80,0x1f,0x00,0x40,0x20,0x00,0x40,0x2f,0x00,
 0x40,0x2f,0x00,0x40,0x2f,0x00,0x40,0x2f,0x00,0x40,0x2f,0x00,0x40,0x2f,0x00,
 0x40,0x2f,0x00,0x40,0x2f,0x00,0x40,0x20,0x00,0x80,0x1f,0x00 };
