#define _width 20
#define _height 14
static char _bits[] = {
 0x00,0x00,0x00,0x80,0x16,0x00,0x00,0x00,0x00,0x80,0x1f,0x00,0xd0,0xbf,0x00,
 0xc0,0x3f,0x00,0xd0,0xbf,0x00,0xd0,0xbf,0x00,0xc0,0x3f,0x00,0xd0,0xbf,0x00,
 0x80,0x1f,0x00,0x00,0x00,0x00,0x80,0x16,0x00,0x00,0x00,0x00 };
