/* XPM */
static char *dummy[]={
"32 32 3 1",
". c None",
"a c #000000",
"# c #5e6366",
"................................",
"................................",
"................................",
"...##########################...",
"...##########################a..",
"...##########################a..",
"...##########################a..",
"...##########################a..",
"...##########################a..",
"...##########################a..",
"...##########################a..",
"...##########################a..",
"...##########################a..",
"...##########################a..",
"...##########################a..",
"...##########################a..",
"...##########################a..",
"...##########################a..",
"...##########################a..",
"...##########################a..",
"...##########################a..",
"...##########################a..",
"...##########################a..",
"...##########################a..",
"...##########################a..",
"...##########################a..",
"...##########################a..",
"...##########################a..",
"...##########################a..",
"....aaaaaaaaaaaaaaaaaaaaaaaaaa..",
"................................",
"................................"};
