#define _width 10
#define _height 14
static char _bits[] = {
 0x00,0x00,0x00,0x00,0xfe,0x01,0xff,0x03,0xff,0x03,0xff,0x03,0xff,0x03,0xff,
 0x03,0xff,0x03,0xff,0x03,0xff,0x03,0xfe,0x01,0x00,0x00,0x00,0x00 };
