#define _width 20
#define _height 14
static char _bits[] = {
 0x00,0x00,0x00,0xf0,0xfb,0x00,0x10,0x8a,0x00,0x10,0x8a,0x00,0x10,0x8a,0x00,
 0x10,0x8a,0x00,0x10,0x8a,0x00,0x10,0x8a,0x00,0x10,0x8a,0x00,0x10,0x8a,0x00,
 0x10,0x8a,0x00,0x10,0x8a,0x00,0xf0,0xfb,0x00,0x00,0x00,0x00 };
