#define _width 20
#define _height 14
static char _bits[] = {
 0x80,0x3f,0x00,0x80,0x20,0x00,0x80,0x26,0x00,0x80,0x16,0x00,0x80,0x16,0x00,
 0x80,0x26,0x00,0x80,0x26,0x00,0x80,0x30,0x00,0x80,0x26,0x00,0x80,0x36,0x00,
 0x80,0x26,0x00,0x80,0x36,0x00,0x80,0x20,0x00,0x80,0x3f,0x00 };
