#define _width 20
#define _height 14
static char _bits[] = {
 0x00,0x00,0x00,0x00,0x02,0x00,0x00,0x47,0x00,0x80,0x87,0x00,0xc0,0x27,0x01,
 0xf8,0x47,0x01,0xf8,0x57,0x01,0xf8,0x57,0x01,0xf8,0x47,0x01,0xc0,0x27,0x01,
 0x80,0x87,0x00,0x00,0x47,0x00,0x00,0x02,0x00,0x00,0x00,0x00 };
