#define _width 20
#define _height 14
static char _bits[] = {
 0x00,0x00,0x00,0x00,0x0f,0x00,0xc0,0x3f,0x00,0xe0,0x70,0x00,0x30,0xc0,0x00,
 0x10,0x8f,0x00,0x80,0x1f,0x00,0xc0,0x30,0x00,0x00,0x06,0x00,0x00,0x0f,0x00,
 0x00,0x00,0x00,0x00,0x06,0x00,0x00,0x06,0x00,0x00,0x00,0x00 };
